<svg xmlns:svg="http://www.w3.org/2000/svg" xmlns="http://www.w3.org/2000/svg" viewBox="0 0 96 96" fill="#FFF" stroke-miterlimit="10" stroke-width="2" version="1.1">
<linearGradient id="SVGID_1_" gradientUnits="userSpaceOnUse" x1="37.631001" y1="120" x2="206.36971" y2="120" gradientTransform="matrix(0.27768411,0,0,-0.27768411,24.480977,94.182294)">
<stop offset="0.14" style="stop-color:#B1B3B6" />
<stop offset="1" style="stop-color:#606164" />
</linearGradient>
<path stroke="#979593" d="M67.1716,7H27c-1.1046,0-2,0.8954-2,2v78 c0,1.1046,0.8954,2,2,2h58c1.1046,0,2-0.8954,2-2V26.8284c0-0.5304-0.2107-1.0391-0.5858-1.4142L68.5858,7.5858 C68.2107,7.2107,67.702,7,67.1716,7z" />
<path fill="none" stroke="#979593" d="M67,7v18c0,1.1046,0.8954,2,2,2h18" />
<path d="m 81.045232,67.55239 c -1.332882,-1.443958 -4.165261,-2.193703 -8.163915,-2.193703 -2.221471,0 -4.748394,0.222144 -7.553004,0.694207 -1.61057,-1.499495 -3.165603,-3.304441 -4.665094,-5.359301 -1.055201,-1.471728 -2.027096,-2.99899 -2.887915,-4.52625 1.416189,-4.359644 2.388084,-8.552672 2.388084,-11.746041 0,-2.388082 -0.777514,-6.331197 -4.331877,-6.331197 -0.916357,0 -1.91602,0.583137 -2.415852,1.443957 -1.499492,2.582463 -0.805283,8.413829 1.916021,14.356269 -0.944126,2.860144 -2.027092,5.720293 -3.359977,8.969197 -1.110736,2.693534 -2.443619,5.442607 -3.859809,7.969536 -7.719618,3.054522 -12.634627,6.525577 -13.134459,9.302418 -0.16661,0.916356 0.111075,1.804945 0.860821,2.526923 0.444296,0.416525 1.388421,0.971894 2.776842,0.971894 4.442945,0 9.385723,-6.497808 13.078922,-13.134459 2.054863,-0.721977 4.220799,-1.360654 6.442271,-1.971555 2.415854,-0.638674 4.720631,-1.138507 6.914335,-1.527264 5.359306,4.859475 10.107705,5.581452 12.468015,5.581452 2.943454,0 3.776505,-1.221809 4.08196,-1.999328 0.444295,-1.138503 0.05554,-2.360316 -0.555369,-3.026755 z M 54.220947,39.978357 c 0.360987,-0.610904 0.944125,-0.999664 1.610564,-0.999664 1.332886,0 2.054867,1.166275 2.054867,3.304444 0,2.304776 -0.721981,6.053512 -2.110404,10.357616 -2.58246,-6.025745 -2.61023,-10.82968 -1.555027,-12.662396 z M 35.838256,80.298091 c 0.444296,-2.304779 4.831704,-5.41484 11.551659,-8.21945 -3.748735,6.414503 -7.441933,10.357618 -9.774481,10.357618 -0.444294,0 -0.888588,-0.138843 -1.221809,-0.444295 -0.472063,-0.472063 -0.666443,-1.0552 -0.555369,-1.693873 z M 64.245344,66.247276 c -1.999327,0.360987 -4.137494,0.83305 -6.303428,1.41619 -1.916022,0.499831 -3.776508,1.082964 -5.581454,1.666101 1.055197,-1.971557 1.971555,-3.887579 2.665766,-5.636988 0.860823,-2.082629 1.693875,-4.248567 2.415856,-6.414503 0.777514,1.332883 1.610566,2.637999 2.526923,3.915349 1.360651,1.916021 2.80461,3.609893 4.276337,5.053851 z m 1.94379,0.555363 c 4.526249,-0.83305 8.497133,-0.666439 10.191005,-0.30545 1.721641,0.360988 2.665766,1.416189 2.360316,2.971221 -0.305456,1.582798 -2.193708,2.332548 -4.276337,1.832716 -3.332209,-0.805286 -6.081281,-2.610234 -8.274984,-4.498487 z" style="fill:url(#SVGID_1_);stroke-width:0.555369" />
<path fill="#E00122" d="M12,74h32c2.2091,0,4-1.7909,4-4V38c0-2.2091-1.7909-4-4-4H12c-2.2091,0-4,1.7909-4,4v32 C8,72.2091,9.7909,74,12,74z" />
<path d="m 11.463128,62.960011 h 3.493337 v -6.693342 c 0.213334,0 0.453334,0 0.693335,0 1.440001,0 3.253337,-0.533334 4.373339,-1.706669 0.933334,-1.013335 1.520001,-2.373336 1.520001,-4.320006 0,-1.520001 -0.48,-3.013337 -1.546668,-3.946671 -1.173335,-1.093335 -2.800004,-1.386669 -4.880006,-1.386669 -1.333335,0 -2.66667,0.133334 -3.653338,0.346667 z m 3.493337,-15.093353 c 0.213334,-0.08 0.533334,-0.133333 0.853335,-0.133333 1.626669,0 2.266669,1.226668 2.266669,2.800003 0,1.680002 -0.800001,2.933337 -2.560003,2.933337 -0.213333,0 -0.4,0 -0.560001,-0.05333 z" />
<path d="m 23.650643,62.906677 c 0.693334,0.08 1.786669,0.186667 2.880004,0.186667 2.506669,0 4.293338,-0.560001 5.49334,-1.733335 1.573335,-1.386669 2.50667,-3.973339 2.50667,-7.60001 0,-3.493338 -0.800001,-5.866674 -2.34667,-7.253343 -1.146668,-1.066668 -2.720003,-1.600002 -4.986673,-1.600002 -1.386668,0 -2.66667,0.133334 -3.546671,0.346667 z m 3.493338,-15.120019 c 0.213333,-0.08 0.453334,-0.08 0.693334,-0.08 2.106669,0 3.06667,2.240003 3.06667,5.920007 0,4.960007 -1.466668,6.613342 -3.14667,6.613342 -0.186667,0 -0.453334,0 -0.613334,-0.05333 z" />
<path d="m 36.723576,62.960011 h 3.493338 v -7.413343 h 4.053338 v -2.906671 h -4.053338 v -4.613339 h 4.320005 v -3.040004 h -7.813343 z" />
</svg>
