<?xml version="1.0" encoding="UTF-8" standalone="no"?>
<svg
   xmlns:dc="http://purl.org/dc/elements/1.1/"
   xmlns:cc="http://creativecommons.org/ns#"
   xmlns:rdf="http://www.w3.org/1999/02/22-rdf-syntax-ns#"
   xmlns:svg="http://www.w3.org/2000/svg"
   xmlns="http://www.w3.org/2000/svg"
   xmlns:xlink="http://www.w3.org/1999/xlink"
   xmlns:inkscape="http://www.inkscape.org/namespaces/inkscape"
   height="2300"
   width="2300"
   version="1.2"
   preserveAspectRatio="xMidYMid"
   id="svg17">
  <metadata
     id="metadata21">
    <rdf:RDF>
      <cc:Work
         rdf:about="">
        <dc:format>image/svg+xml</dc:format>
        <dc:type
           rdf:resource="http://purl.org/dc/dcmitype/StillImage" />
        <dc:title>Rob Ireton Avatar</dc:title>
      </cc:Work>
    </rdf:RDF>
  </metadata>
  <defs
     id="defs7">
    <symbol
       id="eye">
      <path
         id="sclera"
         d="m 706,1008 c -176,0 -247,64 -247,128 0,64 0,155 234,155 226,0 261,-28 261,-123 0,-64 -71,-160 -248,-160 z"
         style="fill:#f5f5f5" />
      <path
         id="iris"
         d="m 882,1116 c 0,30 -6,54 -21,80 -14,25 -33,44 -58,58 -26,15 -50,21 -80,21 -29,0 -54,-6 -79,-21 -26,-14 -44,-33 -59,-58 -14,-26 -21,-50 -21,-80 0,-29 7,-54 21,-79 15,-26 33,-44 59,-59 25,-14 50,-21 79,-21 30,0 54,7 80,21 25,15 44,33 58,59 15,25 21,50 21,79 z"
         style="fill:#0a84a5" />
      <path
         id="pupil"
         d="m 777,1116 c 0,10 -2,19 -7,27 -5,9 -11,15 -20,20 -8,5 -17,7 -27,7 -9,0 -18,-2 -26,-7 -9,-5 -15,-11 -20,-20 -5,-8 -7,-17 -7,-27 0,-9 2,-18 7,-26 5,-9 11,-15 20,-20 8,-5 17,-7 26,-7 10,0 19,2 27,7 9,5 15,11 20,20 5,8 7,17 7,26 z"
         style="fill:#231f20" />
      <path
         id="eyebrow"
         d="M 459,1135 C 459,887 954,887 954,1170 883,957 530,957 459,1135 Z"
         style="fill:#664e27" />
    </symbol>
  </defs>
  <g
     id="g4"
     transform="translate(21,-22.552199)">
    <path
       id="hair"
       d="M 1763,312 C 1417,-145 434,195 363,163 c 0,0 -12,67 30,111 -54,35 -114,-25 -114,-25 0,0 -63,147 2,241 -104,136 24,852 24,852 h 1621 c 0,0 196,-559 -27,-944 -50,-86 -97,-34 -136,-86 z"
       style="fill:#dbb471" />
    <path
       id="face"
       d="m 1939,1046 c -5,39 -13,75 -24,96 -19,36 -58,57 -58,57 0,0 11,-74 7,-179 -47,-713 -254,-375 -735,-375 -481,0 -689,-338 -735,376 -4,104 6,178 6,178 0,0 -38,-21 -57,-57 -11,-21 -19,-57 -24,-96 -63,-17 -143,-3 -143,182 0,115 41,210 179,220 59,466 165,542 517,707 93,43 151,32 257,32 107,0 164,11 257,-32 352,-165 458,-241 517,-707 138,-10 179,-105 179,-220 0,-185 -80,-199 -143,-182 z"
       style="fill:#fed0ac" />
    <path
       id="mouth"
       d="m 1447,1723 c 0,122 -159,183 -318,183 -159,0 -318,-61 -318,-183 0,0 0,-30 32,-30 h 572 c 32,0 32,30 32,30 z"
       style="fill:#664e27" />
    <path
       id="nose"
       d="m 1130,1589 c -148,0 -222,-107 -148,-107 h 296 c 74,0 0,107 -148,107 z"
       style="fill:#e0a372" />
    <use
       id="right_eye"
       xlink:href="#eye"
       height="100%"
       width="100%"
       y="0"
       x="0" />
    <use
       id="left_eye"
       xlink:href="#eye"
       transform="matrix(-1,0,0,1,2259,0)"
       height="100%"
       width="100%"
       y="0"
       x="0" />
    <path
       id="beard"
       d="m 1803,1066 c -30,12 -40,96 -72,110 -16,135 8,326 -92,375 -115,56 -297,-55 -502,6 -135,40 -135,41 -263,-1 -184,-60 -402,56 -471,11 -108,-72 -117,-239 -133,-426 -50,-4 -46,-68 -73,-90 -11,172 -18,585 79,751 50,86 162,137 201,189 346,457 1058,170 1129,202 0,0 12,-67 -30,-111 54,-35 114,25 114,25 0,0 63,-147 -2,-241 48,-63 130,-617 115,-799 z m -454,577 c 92,-8 -5,219 -44,303 -39,84 -191,-40 -298,-40 -107,0 -182,115 -252,47 -70,-68 -190,-319 -94,-315 96,3 596,13 687,5 z"
       transform="translate(126,21)"
       style="fill:#d09e48" />
  </g>
</svg>
