<?xml version="1.0" encoding="UTF-8" standalone="no"?>
<svg id="svg1307" xmlns:rdf="http://www.w3.org/1999/02/22-rdf-syntax-ns#" xmlns="http://www.w3.org/2000/svg" height="48px" width="48px" version="1.1" xmlns:cc="http://creativecommons.org/ns#" xmlns:xlink="http://www.w3.org/1999/xlink" xmlns:dc="http://purl.org/dc/elements/1.1/">
<defs id="defs1309">
<linearGradient id="linearGradient5075">
<stop id="stop5077" stop-color="#adb0a8" offset="0"/>
<stop id="stop5079" stop-color="#464744" offset="1"/>
</linearGradient>
<linearGradient id="linearGradient2679">
<stop id="stop2681" stop-color="#FFF" offset="0"/>
<stop id="stop2683" stop-color="#d3d7cf" offset="1"/>
</linearGradient>
<linearGradient id="linearGradient1401" y2="140.31" xlink:href="#linearGradient5075" gradientUnits="userSpaceOnUse" x2="55.772" gradientTransform="matrix(-1,0,0,1,93.99994,-121)" y1="157.57" x1="55.614"/>
<linearGradient id="linearGradient1426" y2="115.14" gradientUnits="userSpaceOnUse" x2="49.667" gradientTransform="matrix(-1,0,0,1,90.99085,-97.26213)" y1="112.95" x1="49.43">
<stop id="stop2586" stop-color="#000" offset="0"/>
<stop id="stop2588" stop-color="#FFF" stop-opacity="0" offset="1"/>
</linearGradient>
<radialGradient id="radialGradient1436" xlink:href="#linearGradient2679" gradientUnits="userSpaceOnUse" cy="147.99" cx="64.227" gradientTransform="matrix(-0.222659,-0.996273,-2.129992,0.476041,336.9463,20.8517)" r="8.75"/>
<radialGradient id="radialGradient1439" xlink:href="#linearGradient2679" gradientUnits="userSpaceOnUse" cy="147.99" cx="64.227" gradientTransform="matrix(-0.222659,-0.996273,-2.129992,0.476041,354.9463,20.8517)" r="8.75"/>
<linearGradient id="linearGradient2322" y2="36" gradientUnits="userSpaceOnUse" x2="23.75" gradientTransform="matrix(-1,0,0,1,46.00034,0)" y1="13.659" x1="24.476">
<stop id="stop2318" stop-color="#000" offset="0"/>
<stop id="stop2320" stop-color="#FFF" stop-opacity="0.65979379" offset="1"/>
</linearGradient>
<radialGradient id="radialGradient4375" xlink:href="#linearGradient2679" gradientUnits="userSpaceOnUse" cy="147.99" cx="64.227" gradientTransform="matrix(-0.222659,-0.996273,-2.129992,0.476041,371.9464,20.8517)" r="8.75"/>
<linearGradient id="linearGradient4413" y2="145" xlink:href="#linearGradient5075" gradientUnits="userSpaceOnUse" x2="54" gradientTransform="matrix(-1,4.681043e-17,-4.681043e-17,-1,93.0004,169)" y1="132.5" x1="54"/>
</defs>
<metadata id="metadata1312">
<rdf:RDF>
<cc:Work rdf:about="">
<dc:format>image/svg+xml</dc:format>
<dc:type rdf:resource="http://purl.org/dc/dcmitype/StillImage"/>
<dc:title/>
<dc:creator>
<cc:Agent>
<dc:title>Lapo Calamandrei</dc:title>
</cc:Agent>
</dc:creator>
<cc:license rdf:resource="http://creativecommons.org/licenses/publicdomain/"/>
<dc:contributor>
<cc:Agent>
<dc:title>Jakub Steiner</dc:title>
</cc:Agent>
</dc:contributor>
</cc:Work>
<cc:License rdf:about="http://creativecommons.org/licenses/publicdomain/">
<cc:permits rdf:resource="http://creativecommons.org/ns#Reproduction"/>
<cc:permits rdf:resource="http://creativecommons.org/ns#Distribution"/>
<cc:permits rdf:resource="http://creativecommons.org/ns#DerivativeWorks"/>
</cc:License>
</rdf:RDF>
</metadata>
<g id="layer1">
<path id="path5288" stroke-linejoin="round" opacity="0.15" style="marker-end:none;color:#000000;marker-start:none;marker-mid:none;" d="M4.5,13.5v21l17.5-10.5-17.5-10.5zm18,0v21l17-10.188v10.188h5v-21h-5v10.188l-17-10.188z" stroke-dashoffset="0" stroke="url(#linearGradient2322)" stroke-linecap="square" stroke-miterlimit="4" stroke-dasharray="none" stroke-width="3" fill="none"/>
<path id="path5515" style="marker-end:none;color:#000000;marker-start:none;marker-mid:none;" fill-rule="evenodd" fill="url(#radialGradient1439)" d="M22.5,13.5l17.5,10.5-17.5,10.5v-21z"/>
<path id="use5517" style="marker-end:none;color:#000000;marker-start:none;marker-mid:none;" fill-rule="evenodd" fill="url(#radialGradient1436)" d="M4.4999,13.5l17.5,10.5-17.5,10.5v-21z"/>
<path id="path2915" opacity="0.07027025" style="marker-end:none;color:#000000;marker-start:none;marker-mid:none;" fill-rule="evenodd" fill="url(#linearGradient1426)" d="M4.4999,13.5l1.1875,0.719-1.1875-0.125v-0.594zm18,0.25l0.469,0.031,3.968,2.375-4.437-0.406v-2z"/>
<path id="path5521" stroke-linejoin="round" style="marker-end:none;color:#000000;marker-start:none;marker-mid:none;" fill="none" stroke-dashoffset="0" stroke="url(#linearGradient1401)" stroke-linecap="square" stroke-miterlimit="4" stroke-dasharray="none" stroke-width="1.0000006" d="M22.5,13.5l17.5,10.5-17.5,10.5v-21zm-18,0l17.5,10.5-17.5,10.5v-21z"/>
<path id="path5525" style="marker-end:none;color:#000000;marker-start:none;marker-mid:none;" fill-rule="evenodd" fill="#FFF" d="M23,14.375l16.031,9.625-16.031,9.625v-19.25zm-18,0l16.031,9.625-16.031,9.625v-19.25zm19,1.781v15.688l13.094-7.844-13.094-7.844zm-18,0v15.688l13.094-7.844-13.094-7.844z"/>
<path id="path3197" opacity="0.56111109" style="marker-end:none;color:#000000;marker-start:none;marker-mid:none;" fill-rule="evenodd" fill="#FFF" d="M33.588,21.784l-9.525-5.596v6.042l9.525-0.446z"/>
<path id="path4072" opacity="0.56111109" style="marker-end:none;color:#000000;marker-start:none;marker-mid:none;" d="M18.279,23.207l-12.279-7.019v7.871l12.279-0.852z" fill-rule="evenodd" fill="#FFF"/>
<path id="path3110" style="marker-end:none;color:#000000;marker-start:none;marker-mid:none;" d="M39.5,13.5h5v21h-5v-21z" fill-rule="evenodd" fill="url(#radialGradient4375)"/>
<rect id="rect1923" stroke-linejoin="miter" style="marker-end:none;color:#000000;marker-start:none;marker-mid:none;" stroke-dasharray="none" stroke-dashoffset="0" transform="scale(-1,-1)" height="19" width="3" stroke="#FFF" stroke-linecap="square" stroke-miterlimit="4" y="-33.5" x="-43.5" stroke-width="1" fill="none"/>
<path id="path1935" stroke-linejoin="round" style="marker-end:none;color:#000000;marker-start:none;marker-mid:none;" d="M44.5,34.5v-21h-5v21h5z" stroke-dashoffset="0" stroke="url(#linearGradient4413)" stroke-linecap="square" stroke-miterlimit="4" stroke-dasharray="none" stroke-width="1" fill="none"/>
<path id="path5291" opacity="0.56111109" style="marker-end:none;color:#000000;marker-start:none;marker-mid:none;" fill-rule="evenodd" fill="#FFF" d="M41,22l1.957-0.163v-6.806h-2.033l0.076,6.969z"/>
</g>
</svg>
