<?xml version="1.0" encoding="UTF-8" standalone="no"?>
<svg id="svg1307" xmlns:rdf="http://www.w3.org/1999/02/22-rdf-syntax-ns#" xmlns="http://www.w3.org/2000/svg" height="48px" width="48px" version="1.1" xmlns:cc="http://creativecommons.org/ns#" xmlns:xlink="http://www.w3.org/1999/xlink" xmlns:dc="http://purl.org/dc/elements/1.1/">
<defs id="defs1309">
<linearGradient id="linearGradient5075">
<stop id="stop5077" stop-color="#adb0a8" offset="0"/>
<stop id="stop5079" stop-color="#464744" offset="1"/>
</linearGradient>
<linearGradient id="linearGradient2679">
<stop id="stop2681" stop-color="#FFF" offset="0"/>
<stop id="stop2683" stop-color="#d3d7cf" offset="1"/>
</linearGradient>
<linearGradient id="linearGradient1401" y2="142.94" xlink:href="#linearGradient5075" gradientUnits="userSpaceOnUse" x2="55.936" gradientTransform="translate(-45.99994,-121)" y1="157.71" x1="55.886"/>
<linearGradient id="linearGradient1426" y2="115.14" gradientUnits="userSpaceOnUse" x2="49.667" gradientTransform="translate(-42.99085,-97.26213)" y1="112.95" x1="49.43">
<stop id="stop2586" stop-color="#000" offset="0"/>
<stop id="stop2588" stop-color="#FFF" stop-opacity="0" offset="1"/>
</linearGradient>
<radialGradient id="radialGradient1436" xlink:href="#linearGradient2679" gradientUnits="userSpaceOnUse" cy="147.99" cx="64.227" gradientTransform="matrix(0.222659,-0.996273,2.129992,0.476041,-288.9463,20.8517)" r="8.75"/>
<radialGradient id="radialGradient1439" xlink:href="#linearGradient2679" gradientUnits="userSpaceOnUse" cy="147.99" cx="64.227" gradientTransform="matrix(0.222659,-0.996273,2.129992,0.476041,-306.9463,20.8517)" r="8.75"/>
<radialGradient id="radialGradient4375" xlink:href="#linearGradient2679" gradientUnits="userSpaceOnUse" cy="147.99" cx="64.227" gradientTransform="matrix(0.222659,-0.996273,2.129992,0.476041,-323.9464,20.8517)" r="8.75"/>
<linearGradient id="linearGradient4413" y2="145" xlink:href="#linearGradient5075" gradientUnits="userSpaceOnUse" x2="54" gradientTransform="matrix(1,4.681043e-17,4.681043e-17,-1,-45.0004,169)" y1="131.27" x1="54"/>
<linearGradient id="linearGradient5293" y2="36" gradientUnits="userSpaceOnUse" x2="23.75" gradientTransform="translate(1.99966,0)" y1="13.659" x1="24.476">
<stop id="stop2318" stop-color="#000" offset="0"/>
<stop id="stop2320" stop-color="#FFF" stop-opacity="0.65979379" offset="1"/>
</linearGradient>
</defs>
<metadata id="metadata1312">
<rdf:RDF>
<cc:Work rdf:about="">
<dc:format>image/svg+xml</dc:format>
<dc:type rdf:resource="http://purl.org/dc/dcmitype/StillImage"/>
<dc:title/>
<dc:creator>
<cc:Agent>
<dc:title>Lapo Calamandrei</dc:title>
</cc:Agent>
</dc:creator>
<cc:license rdf:resource="http://creativecommons.org/licenses/publicdomain/"/>
<dc:contributor>
<cc:Agent>
<dc:title>Jakub Steiner</dc:title>
</cc:Agent>
</dc:contributor>
</cc:Work>
<cc:License rdf:about="http://creativecommons.org/licenses/publicdomain/">
<cc:permits rdf:resource="http://creativecommons.org/ns#Reproduction"/>
<cc:permits rdf:resource="http://creativecommons.org/ns#Distribution"/>
<cc:permits rdf:resource="http://creativecommons.org/ns#DerivativeWorks"/>
</cc:License>
</rdf:RDF>
</metadata>
<g id="layer1">
<path id="path5288" opacity="0.15" stroke-linejoin="round" style="marker-end:none;color:#000000;marker-start:none;marker-mid:none;" d="M43.5,13.5v21l-17.5-10.5,17.5-10.5zm-18,0v21l-17-10.188v10.188h-5v-21h5v10.188l17-10.188z" stroke-dashoffset="0" stroke="url(#linearGradient5293)" stroke-linecap="square" stroke-miterlimit="4" stroke-dasharray="none" stroke-width="3" fill="none"/>
<path id="path5515" style="marker-end:none;color:#000000;marker-start:none;marker-mid:none;" fill-rule="evenodd" fill="url(#radialGradient1439)" d="M25.5,13.5l-17.5,10.5,17.5,10.5v-21z"/>
<path id="use5517" style="marker-end:none;color:#000000;marker-start:none;marker-mid:none;" fill-rule="evenodd" fill="url(#radialGradient1436)" d="M43.5,13.5l-17.5,10.5,17.5,10.5v-21z"/>
<path id="path2915" opacity="0.07027025" style="marker-end:none;color:#000000;marker-start:none;marker-mid:none;" fill-rule="evenodd" fill="url(#linearGradient1426)" d="M43.5,13.5l-1.187,0.719,1.187-0.125v-0.594zm-18,0.25l-0.469,0.031-3.968,2.375,4.437-0.406v-2z"/>
<path id="path5521" stroke-linejoin="round" style="marker-end:none;color:#000000;marker-start:none;marker-mid:none;" fill="none" stroke-dashoffset="0" stroke="url(#linearGradient1401)" stroke-linecap="square" stroke-miterlimit="4" stroke-dasharray="none" stroke-width="1.0000006" d="M25.5,13.5l-17.5,10.5,17.5,10.5v-21zm18,0l-17.5,10.5,17.5,10.5v-21z"/>
<path id="path5525" style="marker-end:none;color:#000000;marker-start:none;marker-mid:none;" fill-rule="evenodd" fill="#FFF" d="M25,14.375l-16.031,9.625,16.031,9.625v-19.25zm18,0l-16.031,9.625,16.031,9.625v-19.25zm-19,1.781v15.688l-13.094-7.844,13.094-7.844zm18,0v15.688l-13.094-7.844,13.094-7.844z"/>
<path id="path3197" opacity="0.56111109" style="marker-end:none;color:#000000;marker-start:none;marker-mid:none;" fill-rule="evenodd" fill="#FFF" d="M12.412,23.159l11.588-6.971v6.042l-11.588,0.929z"/>
<path id="path4072" opacity="0.56111109" style="marker-end:none;color:#000000;marker-start:none;marker-mid:none;" d="M31.971,22.145l10.029-5.957v5.558l-10.029,0.399z" fill-rule="evenodd" fill="#FFF"/>
<path id="path3110" style="marker-end:none;color:#000000;marker-start:none;marker-mid:none;" d="M8.5,13.5h-5v21h5v-21z" fill-rule="evenodd" fill="url(#radialGradient4375)"/>
<rect id="rect1923" stroke-linejoin="miter" style="marker-end:none;color:#000000;marker-start:none;marker-mid:none;" stroke-dasharray="none" stroke-dashoffset="0" transform="scale(1,-1)" height="19" width="3" stroke="#FFF" stroke-linecap="square" stroke-miterlimit="4" y="-33.5" x="4.4996" stroke-width="1" fill="none"/>
<path id="path1935" stroke-linejoin="round" style="marker-end:none;color:#000000;marker-start:none;marker-mid:none;" d="M3.4996,34.5v-21h5v21h-5z" stroke-dashoffset="0" stroke="url(#linearGradient4413)" stroke-linecap="square" stroke-miterlimit="4" stroke-dasharray="none" stroke-width="1" fill="none"/>
<path id="path5291" opacity="0.56111109" style="marker-end:none;color:#000000;marker-start:none;marker-mid:none;" fill-rule="evenodd" fill="#FFF" d="M7,24.312l-1.9567,0.338v-9.619h2.0329l-0.0762,9.281z"/>
</g>
</svg>
